# Blender v2.78 (sub 0) OBJ File: 'SwingingBlade.blend'
# www.blender.org
mtllib SwingingBlade.mtl
o Cube
v -0.086260 -6.700188 -1.000000
v -0.086260 -6.700188 1.000000
v 0.086260 -6.700188 1.000000
v 0.086260 -6.700188 -1.000000
v -0.086260 -4.700188 -1.000000
v -0.086260 -4.700188 1.000001
v 0.086260 -4.700188 1.000000
v 0.086260 -4.700188 -1.000000
v -0.086260 -6.700188 0.250000
v 0.086260 -6.700188 0.250000
v -0.086260 -4.700188 0.250000
v 0.086260 -4.700188 0.250000
v 0.086260 -6.700188 -0.250000
v 0.086260 -4.700188 -0.250000
v -0.086260 -6.700188 -0.250000
v -0.086260 -4.700188 -0.250000
v -0.086260 0.360807 -0.250000
v -0.086260 0.360807 0.250000
v 0.086260 0.360807 0.250000
v 0.086260 0.360807 -0.250000
v -0.186260 -6.700188 -0.250000
v -0.186260 -6.700188 0.250000
v -0.186260 -4.700188 -0.250000
v -0.186260 -4.700188 0.250000
v -0.186260 0.360807 -0.250000
v -0.186260 0.360807 0.250000
v 0.186260 -4.700188 0.250000
v 0.186260 -6.700188 0.250000
v 0.186260 -6.700188 -0.250000
v 0.186260 -4.700188 -0.250000
v 0.186260 0.360807 0.250000
v 0.186260 0.360807 -0.250000
vn 0.0000 1.0000 0.0000
vn 0.0000 -1.0000 0.0000
vn 1.0000 -0.0000 -0.0000
vn -0.0000 0.0000 -1.0000
vn -1.0000 0.0000 0.0000
vn 0.0000 -0.0000 1.0000
usemtl Material
s off
f 9//1 2//1 3//1 10//1
f 11//2 12//2 7//2 6//2
f 9//3 11//3 6//3 2//3
f 2//4 6//4 7//4 3//4
f 13//5 14//5 8//5 4//5
f 5//6 1//6 4//6 8//6
f 3//5 7//5 12//5 10//5
f 16//6 17//6 25//6 23//6
f 9//1 15//1 21//1 22//1
f 15//1 9//1 10//1 13//1
f 1//1 15//1 13//1 4//1
f 5//2 8//2 14//2 16//2
f 1//3 5//3 16//3 15//3
f 14//6 13//6 29//6 30//6
f 17//2 20//2 19//2 18//2
f 16//6 14//6 20//6 17//6
f 10//4 12//4 27//4 28//4
f 12//4 11//4 18//4 19//4
f 21//3 23//3 24//3 22//3
f 24//3 23//3 25//3 26//3
f 11//4 9//4 22//4 24//4
f 17//2 18//2 26//2 25//2
f 15//6 16//6 23//6 21//6
f 18//4 11//4 24//4 26//4
f 28//5 27//5 30//5 29//5
f 30//5 27//5 31//5 32//5
f 20//6 14//6 30//6 32//6
f 19//2 20//2 32//2 31//2
f 12//4 19//4 31//4 27//4
f 13//1 10//1 28//1 29//1
